<svg height="16" viewBox="0 0 16 16" width="16" xmlns="http://www.w3.org/2000/svg"><g fill="none" fill-rule="evenodd"><path d="m0 0h16v16h-16z"/><path d="m8.5461 16h-7.663c-.48785 0-.88308-.39547-.88308-.88313v-14.234c0-.48779.39529-.88307.88308-.88307h14.234c.48767 0 .88302.39528.88302.88307v14.234c0 .48772-.39541.88313-.88302.88313h-4.0772v-6.1961h2.0797l.31141-2.4147h-2.3912v-1.5416c0-.69912.19414-1.1755 1.1967-1.1755l1.2787-.00055875v-2.1597c-.22114-.029427-.98018-.095173-1.8633-.095173-1.8436 0-3.1057 1.1253-3.1057 3.1919v1.7808h-2.0851v2.4147h2.0851v6.19610005z" fill="#fff" fill-rule="nonzero"/></g></svg>