<?xml version="1.0" encoding="UTF-8"?>
<svg width="16px" height="16px" viewBox="0 0 16 16" version="1.1" xmlns="http://www.w3.org/2000/svg" xmlns:xlink="http://www.w3.org/1999/xlink">
    <!-- Generator: Sketch 51 (57462) - http://www.bohemiancoding.com/sketch -->
    <title>16-sm-yt</title>
    <desc>Created with Sketch.</desc>
    <defs></defs>
    <g id="16-sm-yt" stroke="none" stroke-width="1" fill="none" fill-rule="evenodd">
        <polygon id="Shape" points="0 0 16 0 16 16 0 16"></polygon>
        <path d="M6.62647429,13.573177 C3.57934374,13.517073 2.53859949,13.4666091 1.89889502,13.3348092 C1.46609265,13.2472394 1.08998799,13.0528049 0.814217475,12.7708006 C0.601081602,12.5573679 0.431582182,12.2317271 0.30007913,11.7799266 C0.187277414,11.4035251 0.143344115,11.0903519 0.080709478,10.3253781 C-0.0151719802,8.59891819 -0.0380291699,7.18741251 0.080709478,5.61026642 C0.178668862,4.73931844 0.226164322,3.70540167 0.876852112,3.10220933 C1.18408836,2.8199082 1.54149169,2.63823807 1.94282832,2.56313587 C2.56976838,2.44410038 5.24079427,2.35 8.00592053,2.35 C10.764813,2.35 13.4417758,2.44410038 14.0693096,2.56313587 C14.5706835,2.65723625 15.0408886,2.93924054 15.3169559,3.30287765 C15.9106492,4.23675711 15.9210388,5.39802109 15.9812987,6.30637175 C16.0062338,6.73917412 16.0062338,9.19676728 15.9812987,9.62956966 C15.8874951,11.0651199 15.8120961,11.5730245 15.5989602,12.0996304 C15.4671603,12.4320986 15.3546554,12.6075349 15.1599241,12.8019695 C14.8545174,13.1011784 14.4651722,13.3002001 14.0437808,13.3725087 C11.4068923,13.5708022 9.1677782,13.613845 6.62647429,13.573177 Z M10.6579482,7.80485348 C9.19093224,7.02088156 7.78625403,6.30013797 6.35040693,5.54763179 L6.35040693,10.0493108 C7.86135623,9.22793618 9.45393834,8.47572684 10.664182,7.80485348 L10.6579482,7.80485348 Z" id="Shape" fill="#FFFFFF" fill-rule="nonzero"></path>
    </g>
</svg>