<?xml version="1.0" encoding="UTF-8"?>
<svg width="16px" height="16px" viewBox="0 0 16 16" version="1.1" xmlns="http://www.w3.org/2000/svg" xmlns:xlink="http://www.w3.org/1999/xlink">
    <!-- Generator: Sketch 51 (57462) - http://www.bohemiancoding.com/sketch -->
    <title>16-sm-fl</title>
    <desc>Created with Sketch.</desc>
    <defs></defs>
    <g id="16-sm-fl" stroke="none" stroke-width="1" fill="none" fill-rule="evenodd">
        <polygon id="Shape" points="0 0 16 0 16 16 0 16"></polygon>
        <path d="M8.64032653,7.7524898 C8.64032653,9.74987755 10.2599184,11.3694694 12.2576327,11.3694694 C14.2550204,11.3694694 15.8742857,9.74987755 15.8742857,7.7524898 C15.8742857,5.75510204 14.2550204,4.13583673 12.2576327,4.13583673 C10.2599184,4.13583673 8.64032653,5.75510204 8.64032653,7.7524898 Z" id="Shape" fill="#FFFFFF" fill-rule="nonzero"></path>
        <path d="M0.281142857,7.7524898 C0.281142857,9.74987755 1.90040816,11.3694694 3.89812245,11.3694694 C5.89583673,11.3694694 7.51510204,9.74987755 7.51510204,7.7524898 C7.51510204,5.75510204 5.89583673,4.13583673 3.89812245,4.13583673 C1.90040816,4.13583673 0.281142857,5.75510204 0.281142857,7.7524898 Z" id="Shape" fill="#FFFFFF" fill-rule="nonzero"></path>
    </g>
</svg>