<svg width="306" height="64" viewBox="0 0 306 64" fill="none" xmlns="http://www.w3.org/2000/svg">
<path d="M93.189 27.9098L95.5764 11.1069H95.8506L102.681 24.8942L109.444 11.1069H109.718L112.128 27.9098H110.472L108.827 15.893L102.887 27.9098H102.464L96.4445 15.8016L94.8111 27.9098H93.189Z" fill="white"/>
<path d="M135.156 10.6842C137.7 10.6842 139.828 11.5333 141.542 13.2315C143.255 14.9297 144.112 17.0201 144.112 19.5026C144.112 21.9623 143.255 24.0489 141.542 25.7623C139.836 27.4757 137.753 28.3324 135.293 28.3324C132.803 28.3324 130.701 27.4795 128.988 25.7737C127.275 24.0679 126.418 22.0042 126.418 19.5826C126.418 17.9681 126.806 16.4718 127.583 15.0934C128.367 13.7151 129.434 12.6375 130.781 11.8608C132.129 11.0764 133.588 10.6842 135.156 10.6842ZM135.236 12.3291C133.995 12.3291 132.818 12.6527 131.707 13.3C130.595 13.9473 129.727 14.8193 129.102 15.9158C128.478 17.0124 128.166 18.2347 128.166 19.5826C128.166 21.5777 128.855 23.2645 130.233 24.6429C131.619 26.0136 133.287 26.699 135.236 26.699C136.538 26.699 137.742 26.3829 138.846 25.7509C139.958 25.1188 140.822 24.2545 141.439 23.1579C142.063 22.0613 142.376 20.8429 142.376 19.5026C142.376 18.1699 142.063 16.9667 141.439 15.893C140.822 14.8116 139.95 13.9473 138.823 13.3C137.696 12.6527 136.5 12.3291 135.236 12.3291Z" fill="white"/>
<path d="M157.899 11.1069H159.727L165.29 24.0946L170.955 11.1069H172.783L165.472 27.9098H165.107L157.899 11.1069Z" fill="white"/>
<path d="M187.313 11.1069H196.942V12.7632H188.992V18.0176H196.874V19.6625H188.992V26.2535H196.874V27.9098H187.313V11.1069Z" fill="white"/>
<path d="M210.775 27.9098L213.162 11.1069H213.437L220.267 24.8942L227.03 11.1069H227.304L229.714 27.9098H228.058L226.413 15.893L220.473 27.9098H220.05L214.031 15.8016L212.397 27.9098H210.775Z" fill="white"/>
<path d="M244.746 11.1069H254.376V12.7632H246.426V18.0176H254.307V19.6625H246.426V26.2535H254.307V27.9098H244.746V11.1069Z" fill="white"/>
<path d="M268.986 27.9098V11.1069H269.351L280.523 23.9689V11.1069H282.179V27.9098H281.802L270.722 15.2076V27.9098H268.986Z" fill="white"/>
<path d="M296.32 12.7403V11.1069H305.538V12.7403H301.792V27.9098H300.078V12.7403H296.32Z" fill="white"/>
<path d="M92.2181 53.4115L93.646 52.5548C94.6512 54.4053 95.8125 55.3305 97.1299 55.3305C97.6934 55.3305 98.2227 55.2011 98.7177 54.9422C99.2127 54.6756 99.5896 54.3215 99.8485 53.8798C100.107 53.4382 100.237 52.9698 100.237 52.4748C100.237 51.9113 100.047 51.3592 99.6658 50.8185C99.1403 50.0722 98.1808 49.1737 96.7872 48.1228C95.386 47.0643 94.5141 46.2989 94.1714 45.8268C93.5774 45.0348 93.2804 44.1781 93.2804 43.2567C93.2804 42.5256 93.4556 41.8593 93.8059 41.2577C94.1562 40.6561 94.6474 40.1839 95.2794 39.8412C95.9191 39.4909 96.6121 39.3158 97.3584 39.3158C98.1503 39.3158 98.889 39.5138 99.5744 39.9098C100.267 40.2981 100.998 41.0178 101.768 42.0687L100.397 43.1082C99.7648 42.2705 99.2241 41.7184 98.7748 41.4519C98.3331 41.1853 97.8495 41.0521 97.3241 41.0521C96.6463 41.0521 96.0904 41.2577 95.6564 41.6689C95.2299 42.0801 95.0167 42.5865 95.0167 43.1881C95.0167 43.5536 95.0928 43.9077 95.2451 44.2504C95.3975 44.5931 95.6754 44.9663 96.079 45.3699C96.2999 45.5831 97.0233 46.1428 98.2493 47.049C99.7038 48.1228 100.701 49.0785 101.242 49.9161C101.783 50.7538 102.053 51.5953 102.053 52.4406C102.053 53.659 101.589 54.7175 100.66 55.6161C99.7381 56.5147 98.6149 56.964 97.2898 56.964C96.2694 56.964 95.3441 56.6937 94.5141 56.153C93.684 55.6047 92.9187 54.6909 92.2181 53.4115Z" fill="white"/>
<path d="M110.273 39.7384H113.62C115.539 39.7384 116.833 39.8222 117.504 39.9897C118.463 40.2258 119.247 40.7132 119.857 41.4519C120.466 42.1829 120.77 43.1043 120.77 44.2162C120.77 45.3356 120.473 46.2608 119.88 46.9919C119.286 47.7154 118.467 48.2027 117.424 48.454C116.662 48.6368 115.238 48.7282 113.151 48.7282H111.952V56.5414H110.273V39.7384ZM111.952 41.3719V47.0833L114.796 47.1176C115.946 47.1176 116.788 47.0147 117.321 46.8091C117.854 46.5959 118.273 46.257 118.577 45.7925C118.882 45.3204 119.034 44.7949 119.034 44.2162C119.034 43.6526 118.882 43.1386 118.577 42.6741C118.273 42.2019 117.869 41.8669 117.367 41.6689C116.872 41.4709 116.057 41.3719 114.922 41.3719H111.952Z" fill="white"/>
<path d="M136.815 39.3158C139.358 39.3158 141.487 40.1649 143.2 41.8631C144.914 43.5613 145.77 45.6516 145.77 48.1342C145.77 50.5939 144.914 52.6805 143.2 54.3939C141.494 56.1073 139.412 56.964 136.952 56.964C134.462 56.964 132.36 56.1111 130.647 54.4053C128.933 52.6995 128.076 50.6358 128.076 48.2141C128.076 46.5997 128.465 45.1033 129.242 43.725C130.026 42.3466 131.092 41.2691 132.44 40.4923C133.788 39.708 135.246 39.3158 136.815 39.3158ZM136.895 40.9607C135.654 40.9607 134.477 41.2843 133.365 41.9316C132.253 42.5789 131.385 43.4508 130.761 44.5474C130.136 45.644 129.824 46.8663 129.824 48.2141C129.824 50.2093 130.513 51.8961 131.892 53.2744C133.278 54.6452 134.945 55.3305 136.895 55.3305C138.197 55.3305 139.4 55.0145 140.504 54.3824C141.616 53.7504 142.481 52.8861 143.097 51.7895C143.722 50.6929 144.034 49.4745 144.034 48.1342C144.034 46.8015 143.722 45.5983 143.097 44.5246C142.481 43.4432 141.609 42.5789 140.482 41.9316C139.355 41.2843 138.159 40.9607 136.895 40.9607Z" fill="white"/>
<path d="M153.83 56.5414V39.7384H154.196L165.367 52.6005V39.7384H167.024V56.5414H166.647L155.567 43.8392V56.5414H153.83Z" fill="white"/>
<path d="M174.147 41.3719V39.7384H183.365V41.3719H179.618V56.5414H177.905V41.3719H174.147Z" fill="white"/>
<path d="M197.319 39.7384L205.155 56.5414H203.35L200.712 51.0127H193.47L190.842 56.5414H188.969L196.908 39.7384H197.319ZM197.113 43.3023L194.224 49.3907H199.969L197.113 43.3023Z" fill="white"/>
<path d="M212.461 56.5414V39.7384H212.827L223.998 52.6005V39.7384H225.654V56.5414H225.277L214.197 43.8392V56.5414H212.461Z" fill="white"/>
<path d="M234.457 39.7384H244.086V41.3947H236.136V46.6492H244.018V48.2941H236.136V54.885H244.018V56.5414H234.457V39.7384Z" fill="white"/>
<path d="M259.674 39.3158C262.217 39.3158 264.346 40.1649 266.059 41.8631C267.772 43.5613 268.629 45.6516 268.629 48.1342C268.629 50.5939 267.772 52.6805 266.059 54.3939C264.353 56.1073 262.271 56.964 259.811 56.964C257.321 56.964 255.219 56.1111 253.505 54.4053C251.792 52.6995 250.935 50.6358 250.935 48.2141C250.935 46.5997 251.324 45.1033 252.1 43.725C252.885 42.3466 253.951 41.2691 255.299 40.4923C256.647 39.708 258.105 39.3158 259.674 39.3158ZM259.754 40.9607C258.512 40.9607 257.336 41.2843 256.224 41.9316C255.112 42.5789 254.244 43.4508 253.62 44.5474C252.995 45.644 252.683 46.8663 252.683 48.2141C252.683 50.2093 253.372 51.8961 254.751 53.2744C256.136 54.6452 257.804 55.3305 259.754 55.3305C261.056 55.3305 262.259 55.0145 263.363 54.3824C264.475 53.7504 265.339 52.8861 265.956 51.7895C266.581 50.6929 266.893 49.4745 266.893 48.1342C266.893 46.8015 266.581 45.5983 265.956 44.5246C265.339 43.4432 264.468 42.5789 263.34 41.9316C262.213 41.2843 261.018 40.9607 259.754 40.9607Z" fill="white"/>
<path d="M276.735 39.7384H278.414V49.8819C278.414 51.0851 278.437 51.8352 278.482 52.1322C278.566 52.7947 278.76 53.3506 279.065 53.7999C279.37 54.2416 279.838 54.6147 280.47 54.9193C281.102 55.2163 281.738 55.3648 282.378 55.3648C282.934 55.3648 283.467 55.2468 283.977 55.0107C284.487 54.7746 284.914 54.4472 285.256 54.0283C285.599 53.6095 285.85 53.1031 286.01 52.5091C286.124 52.0827 286.181 51.2069 286.181 49.8819V39.7384H287.861V49.8819C287.861 51.3821 287.712 52.5967 287.415 53.5257C287.126 54.4472 286.539 55.2506 285.656 55.9359C284.78 56.6213 283.718 56.964 282.469 56.964C281.114 56.964 279.952 56.6404 278.985 55.9931C278.018 55.3458 277.371 54.4891 277.043 53.4229C276.838 52.768 276.735 51.5877 276.735 49.8819V39.7384Z" fill="white"/>
<path d="M294.95 53.4115L296.377 52.5548C297.383 54.4053 298.544 55.3305 299.861 55.3305C300.425 55.3305 300.954 55.2011 301.449 54.9422C301.944 54.6756 302.321 54.3215 302.58 53.8798C302.839 53.4382 302.968 52.9698 302.968 52.4748C302.968 51.9113 302.778 51.3592 302.397 50.8185C301.872 50.0722 300.912 49.1737 299.519 48.1228C298.117 47.0643 297.246 46.2989 296.903 45.8268C296.309 45.0348 296.012 44.1781 296.012 43.2567C296.012 42.5256 296.187 41.8593 296.537 41.2577C296.888 40.6561 297.379 40.1839 298.011 39.8412C298.651 39.4909 299.344 39.3158 300.09 39.3158C300.882 39.3158 301.62 39.5138 302.306 39.9098C302.999 40.2981 303.73 41.0178 304.499 42.0687L303.128 43.1082C302.496 42.2705 301.956 41.7184 301.506 41.4519C301.065 41.1853 300.581 41.0521 300.056 41.0521C299.378 41.0521 298.822 41.2577 298.388 41.6689C297.961 42.0801 297.748 42.5865 297.748 43.1881C297.748 43.5536 297.824 43.9077 297.977 44.2504C298.129 44.5931 298.407 44.9663 298.81 45.3699C299.031 45.5831 299.755 46.1428 300.981 47.049C302.435 48.1228 303.433 49.0785 303.974 49.9161C304.514 50.7538 304.785 51.5953 304.785 52.4406C304.785 53.659 304.32 54.7175 303.391 55.6161C302.47 56.5147 301.346 56.964 300.021 56.964C299.001 56.964 298.076 56.6937 297.246 56.153C296.415 55.6047 295.65 54.6909 294.95 53.4115Z" fill="white"/>
<path d="M54.3699 17.2539L47.1473 52.163L54.3699 64L61.5924 52.163L54.3699 17.2539Z" fill="white"/>
<path d="M30.6959 0L23.4733 34.9091L30.6959 46.7461L37.9185 34.9091L30.6959 0Z" fill="white"/>
<path d="M7.22256 17.2539L0 52.163L7.22256 64L14.4451 52.163L7.22256 17.2539Z" fill="white"/>
</svg>
