<svg height="16" viewBox="0 0 16 16" width="16" xmlns="http://www.w3.org/2000/svg"><g fill="none" fill-rule="evenodd"><path d="m0 0h16v16h-16z"/><path d="m5.33376414 8c0-1.4726979 1.19353796-2.66688207 2.66623586-2.66688207s2.6668821 1.19418417 2.6668821 2.66688207-1.1941842 2.6668821-2.6668821 2.6668821-2.66623586-1.1941842-2.66623586-2.6668821m-1.44168013 0c0 2.2688207 1.83909531 4.107916 4.10791599 4.107916 2.2688207 0 4.107916-1.8390953 4.107916-4.107916 0-2.26882068-1.8390953-4.10791599-4.107916-4.10791599-2.26882068 0-4.10791599 1.83909531-4.10791599 4.10791599m7.41841679-4.27075929c0 .52988692.4297254.96025848.9602585.96025848.5298869 0 .9602585-.43037156.9602585-.96025848 0-.52988691-.4297254-.95961228-.9602585-.95961228s-.9602585.42972537-.9602585.95961228m-6.54281098 10.78255249c-.77996769-.0355412-1.20387722-.1654281-1.48562197-.2752827-.37350565-.1453958-.63974152-.3185784-.92019386-.5983845-.27980614-.2798061-.45363489-.546042-.59838449-.9195476-.10985461-.2817448-.23974152-.7056543-.27528271-1.485622-.03877222-.8432957-.04652666-1.0966075-.04652666-3.2329564 0-2.13634895.00840065-2.38901454.04652666-3.23295638.03554119-.77996769.16607431-1.20323102.27528271-1.48562197.1453958-.37350566.31857835-.63974152.59838449-.92019386.27980614-.27980614.546042-.4536349.92019386-.59838449.28174475-.10985461.70565428-.23974152 1.48562197-.27528272.84329564-.03877221 1.09660743-.04652665 3.23231018-.04652665 2.1363489 0 2.3890145.00840064 3.2329564.04652665.7799677.0355412 1.203231.16607431 1.485622.27528272.3735056.14474959.6397415.31857835.9201938.59838449.2798062.27980614.4529887.5466882.5983845.92019386.1098546.28174475.2397415.70565428.2752827 1.48562197.0387722.84394184.0465267 1.09660743.0465267 3.23295638 0 2.1357027-.0077545 2.3890145-.0465267 3.2329564-.0355412.7799677-.1660743 1.2038772-.2752827 1.485622-.1453958.3735056-.3185783.6397415-.5983845.9195476-.2798061.2798061-.5466882.4529887-.9201938.5983845-.2817448.1098546-.7056543.2397415-1.485622.2752827-.8432957.0387722-1.0966075.0465267-3.2329564.0465267-2.13570275 0-2.38901454-.0077545-3.23231018-.0465267m-.06591276-14.46332793c-.85169628.03877221-1.43327948.17382875-1.94184168.37156704-.52600969.20420032-.97189015.47819063-1.41712439.92277868-.44458805.44458804-.71857836.89046849-.92277868 1.41712439-.19773829.5085622-.33279483 1.0901454-.37156704 1.94184168-.03941842.85298869-.04846527 1.12568659-.04846527 3.29822294 0 2.1725363.00904685 2.4452342.04846527 3.2982229.03877221.8516963.17382875 1.4332795.37156704 1.9418417.20420032.5260097.47754443.9725364.92277868 1.4171244.44458804.4445881.89046849.7179322 1.41712439.9227787.5092084.1977383 1.0901454.3327948 1.94184168.371567.85363489.0387722 1.12568659.0484653 3.29822294.0484653 2.1731826 0 2.4452342-.0090468 3.2982229-.0484653.8516963-.0387722 1.4332795-.1738287 1.9418417-.371567.5260097-.2048465.9718902-.4781906 1.4171244-.9227787.4445881-.444588.7179322-.8911147.9227787-1.4171244.1977383-.5085622.333441-1.0901454.371567-1.9418417.0387722-.8536349.0478191-1.1256866.0478191-3.2982229 0-2.17253635-.0090469-2.44523425-.0478191-3.29822294-.0387722-.85169628-.1738287-1.43327948-.371567-1.94184168-.2048465-.52600969-.4781906-.97189015-.9227787-1.41712439-.444588-.44458805-.8911147-.71857836-1.4164782-.92277868-.5092084-.19773829-1.0907916-.33344103-1.9418417-.37156704-.8529886-.03877222-1.1256865-.04846527-3.2982229-.04846527-2.17318255 0-2.44523425.00904685-3.29886914.04846527" fill="#fff" fill-rule="nonzero"/></g></svg>