<svg height="16" viewBox="0 0 16 16" width="16" xmlns="http://www.w3.org/2000/svg"><g fill="none" fill-rule="evenodd"><path d="m0 0h16v16h-16z"/><path d="m6.62647429 13.573177c-3.04713055-.056104-4.0878748-.1065679-4.72757927-.2383678-.43280237-.0875698-.80890703-.2820043-1.08467754-.5640086-.21313588-.2134327-.3826353-.5390735-.51413835-.990874-.11280172-.3764015-.15673501-.6895747-.21936965-1.4545485-.09588146-1.72645991-.11873865-3.13796559 0-4.71511168.09795938-.87094798.14545484-1.90486475.79614263-2.50805709.30723625-.28230113.66463958-.46397126 1.06597621-.53907346.62694006-.11903549 3.29796595-.21313587 6.06309221-.21313587 2.75889247 0 5.43585527.09410038 6.06338907.21313587.5013739.09410038.971579.37610467 1.2476463.73974178.5936933.93387946.6040829 2.09514344.6643428 3.0034941.0249351.43280237.0249351 2.89039553 0 3.32319791-.0938036 1.43555024-.1692026 1.94345484-.3823385 2.47006074-.1317999.3324682-.2443048.5079045-.4390361.7023391-.3054067.2992089-.6947519.4982306-1.1161433.5705392-2.6368885.1982935-4.8760026.2413363-7.41730651.2006683zm4.03147391-5.76832352c-1.46701596-.78397192-2.87169417-1.50471551-4.30754127-2.25722169v4.50167901c1.5109493-.82137462 3.10353141-1.57358396 4.31377507-2.24445732z" fill="#fff" fill-rule="nonzero"/></g></svg>